  <svg class="BgAnimation__svg" viewBox="0 0 600 600" fill="none" xmlns="http://www.w3.org/2000/svg" xmlns:xlink="http://www.w3.org/1999/xlink">
    <g opacity="0.15">
      <path fill-rule="evenodd" clip-rule="evenodd"
        d="M201.337 87.437C193.474 79.5738 180.725 79.5738 172.862 87.437L87.437 172.862C79.5739 180.725 79.5739 193.474 87.437 201.337L400.663 514.563C408.526 522.426 421.275 522.426 429.138 514.563L514.563 429.138C522.426 421.275 522.426 408.526 514.563 400.663L201.337 87.437ZM30.4869 115.912C-8.82897 155.228 -8.82897 218.972 30.4869 258.287L343.713 571.513C383.028 610.829 446.772 610.829 486.088 571.513L571.513 486.088C610.829 446.772 610.829 383.028 571.513 343.713L258.287 30.4869C218.972 -8.82896 155.228 -8.82896 115.912 30.4869L30.4869 115.912Z"
        stroke="url(#paint0_radial)" id="path_0"></path>
        <path
        d="M514.563 201.337C522.426 193.474 522.426 180.725 514.563 172.862L429.138 87.437C421.275 79.5738 408.526 79.5739 400.663 87.437L358.098 130.002L301.148 73.0516L343.713 30.4869C383.028 -8.82896 446.772 -8.82896 486.088 30.4869L571.513 115.912C610.829 155.228 610.829 218.972 571.513 258.287L357.802 471.999L300.852 415.049L514.563 201.337Z"
        stroke="url(#paint1_radial)" id="path_1"></path>
      <path
        d="M243.901 471.999L201.337 514.563C193.474 522.426 180.725 522.426 172.862 514.563L87.437 429.138C79.5739 421.275 79.5739 408.526 87.437 400.663L301.148 186.952L244.198 130.002L30.4869 343.713C-8.82897 383.028 -8.82897 446.772 30.4869 486.088L115.912 571.513C155.228 610.829 218.972 610.829 258.287 571.513L300.852 528.949L243.901 471.999Z"
        stroke="url(#paint2_radial)" id="path_2"></path>
    </g>
    <ellipse cx="295.027" cy="193.118" transform="translate(-295.027 -193.118)" rx="1.07306" ry="1.07433"
      fill="#945DD6">
      <animateMotion dur="10s" repeatCount="indefinite" rotate="auto">
        <mpath xlink:href="#path_2"></mpath>
      </animateMotion>
    </ellipse>
    <path d="M294.685 193.474L268.932 219.258" transform="translate(-294.685 -193.474) rotate(45 294.685 193.474)"
      stroke="url(#paint3_linear)">
      <animateMotion dur="10s" repeatCount="indefinite" rotate="auto">
        <mpath xlink:href="#path_2"></mpath>
      </animateMotion>
    </path>
    <ellipse cx="295.027" cy="193.118" transform="translate(-295.027 -193.118)" rx="1.07306" ry="1.07433" fill="#46737">
      <animateMotion dur="5s" begin="1" repeatCount="indefinite" rotate="auto">
        <mpath xlink:href="#path_2"></mpath>
      </animateMotion>
    </ellipse>
    <path d="M294.685 193.474L268.932 219.258" transform="translate(-294.685 -193.474) rotate(45 294.685 193.474)"
      stroke="url(#paint7_linear)">
      <animateMotion dur="5s" begin="1" repeatCount="indefinite" rotate="auto">
        <mpath xlink:href="#path_2"></mpath>
      </animateMotion>
    </path>
    <ellipse cx="476.525" cy="363.313" rx="1.07433" ry="1.07306"
      transform="translate(-476.525 -363.313) rotate(90 476.525 363.313)" fill="#945DD6">
      <animateMotion dur="10s" repeatCount="indefinite" rotate="auto">
        <mpath xlink:href="#path_0"></mpath>
      </animateMotion>
    </ellipse>
    <path d="M476.171 362.952L450.417 337.168" transform="translate(-476.525 -363.313) rotate(-45 476.171 362.952)"
      stroke="url(#paint4_linear)">
      <animateMotion dur="10s" repeatCount="indefinite" rotate="auto">
        <mpath xlink:href="#path_0"></mpath>
      </animateMotion>
    </path>
    <ellipse cx="382.164" cy="155.029" rx="1.07433" ry="1.07306"
      transform="translate(-382.164 -155.029) rotate(90 382.164 155.029)" fill="#F46737">
      <animateMotion dur="10s" begin="1" repeatCount="indefinite" rotate="auto">
        <mpath xlink:href="#path_0"></mpath>
      </animateMotion>
    </ellipse>
    <path d="M381.81 154.669L356.057 128.885" transform="translate(-381.81 -154.669) rotate(-45 381.81 154.669)"
      stroke="url(#paint5_linear)">
      <animateMotion dur="10s" begin="1" repeatCount="indefinite" rotate="auto">
        <mpath xlink:href="#path_0"></mpath>
      </animateMotion>
    </path>
    <ellipse cx="333.324" cy="382.691" rx="1.07306" ry="1.07433"
      transform="translate(-333.324 -382.691) rotate(-180 333.324 382.691)" fill="#F46737">
      <animateMotion dur="5s" begin="0" repeatCount="indefinite" rotate="auto">
        <mpath xlink:href="#path_1"></mpath>
      </animateMotion>
    </ellipse>
    <path d="M333.667 382.335L359.42 356.551"
      transform="scale(-1 1) translate(-333.667 -382.335) rotate(45 333.667 382.335)" stroke="url(#paint6_linear)">
      <animateMotion dur="5s" begin="0" repeatCount="indefinite" rotate="auto">
        <mpath xlink:href="#path_1"></mpath>
      </animateMotion>
    </path>
    <ellipse cx="165.524" cy="93.9596" rx="1.07306" ry="1.07433" transform="translate(-165.524 -93.9596)"
      fill="#F46737">
      <animateMotion dur="10s" begin="3" repeatCount="indefinite" rotate="auto">
        <mpath xlink:href="#path_0"></mpath>
      </animateMotion>
    </ellipse>
    <path d="M165.182 94.3159L139.429 120.1" transform="translate(-165.182 -94.3159) rotate(45 165.182 94.3159)"
      stroke="url(#paint7_linear)">
      <animateMotion dur="10s" begin="3" repeatCount="indefinite" rotate="auto">
        <mpath xlink:href="#path_0"></mpath>
      </animateMotion>
    </path>
    <ellipse cx="476.525" cy="363.313" rx="1.07433" ry="1.07306"
      transform="translate(-476.525 -363.313) rotate(90 476.525 363.313)" fill="#13ADC7">
      <animateMotion dur="12s" begin="4" repeatCount="indefinite" rotate="auto">
        <mpath xlink:href="#path_0"></mpath>
      </animateMotion>
    </ellipse>
    <path d="M476.171 362.952L450.417 337.168" transform="translate(-476.525 -363.313) rotate(-45 476.171 362.952)"
    stroke="url(#paint11_linear)">
    <animateMotion dur="12s" begin="4" repeatCount="indefinite" rotate="auto">
      <mpath xlink:href="#path_0"></mpath>
    </animateMotion>
  </path>

  
    <!-- Bitcoin -->
    <path transform="translate(270,270)" d="M63.04 39.741c-4.274 17.143-21.638 27.575-38.783 23.301C7.12 58.768-3.313 41.404.962 24.262 5.234 7.117 22.597-3.317 39.737.957c17.144 4.274 27.576 21.64 23.302 38.784z" fill="#f7931a"/>
    <path transform="translate(270,270)" d="M46.11 27.441c.636-4.258-2.606-6.547-7.039-8.074l1.438-5.768-3.512-.875-1.4 5.616c-.922-.23-1.87-.447-2.812-.662l1.41-5.653-3.509-.875-1.439 5.766c-.764-.174-1.514-.346-2.242-.527l.004-.018-4.842-1.209-.934 3.75s2.605.597 2.55.634c1.422.355 1.68 1.296 1.636 2.042l-1.638 6.571c.098.025.225.061.365.117l-.37-.092-2.297 9.205c-.174.432-.615 1.08-1.609.834.035.051-2.552-.637-2.552-.637l-1.743 4.02 4.57 1.139c.85.213 1.683.436 2.502.646l-1.453 5.835 3.507.875 1.44-5.772c.957.26 1.887.5 2.797.726L27.504 50.8l3.511.875 1.453-5.823c5.987 1.133 10.49.676 12.383-4.738 1.527-4.36-.075-6.875-3.225-8.516 2.294-.531 4.022-2.04 4.483-5.157zM38.087 38.69c-1.086 4.36-8.426 2.004-10.807 1.412l1.928-7.729c2.38.594 10.011 1.77 8.88 6.317zm1.085-11.312c-.99 3.966-7.1 1.951-9.083 1.457l1.748-7.01c1.983.494 8.367 1.416 7.335 5.553z" 
          fill="#fff"/>
    
    <!-- Eth -->
    <!-- <svg width="100" height="75" viewBox="0 0 600 600" xmlns="http://www.w3.org/2000/svg" preserveAspectRatio="none">
      <path transform="translate(200,200)" fill="#343434" d="M127.961 0l-2.795 9.5v275.668l2.795 2.79 127.962-75.638z"/>
      <path transform="translate(200,200)"  fill="#8C8C8C" d="M127.962 0L0 212.32l127.962 75.639V154.158z"/>
      <path transform="translate(200,200)"  fill="#3C3C3B" d="M127.961 312.187l-1.575 1.92v98.199l1.575 4.6L256 236.587z"/>
      <path transform="translate(200,200)"  fill="#8C8C8C" d="M127.962 416.905v-104.72L0 236.585z"/>
      <path transform="translate(200,200)"  fill="#141414" d="M127.961 287.958l127.96-75.637-127.96-58.162z"/>
      <path transform="translate(200,200)"  fill="#393939" d="M0 212.32l127.96 75.638v-133.8z"/>
    </svg>
   -->
    
    <defs>
      
      <!-- Colors for Paths -->
      <radialGradient id="paint0_radial" cx="0" cy="0" r="1" gradientUnits="userSpaceOnUse"
        gradientTransform="translate(301 301) rotate(90) scale(300)">
        <stop offset="0.333333" stop-color="#FBFBFB"></stop>
        <stop offset="1" stop-color="white" stop-opacity="0"></stop>
      </radialGradient>
      
      <radialGradient id="paint1_radial" cx="0" cy="0" r="1" gradientUnits="userSpaceOnUse"
        gradientTransform="translate(301 301) rotate(90) scale(300)">
        <stop offset="0.333333" stop-color="#FBFBFB"></stop>
        <stop offset="1" stop-color="white" stop-opacity="0"></stop>
      </radialGradient>

      <radialGradient id="paint2_radial" cx="0" cy="0" r="1" gradientUnits="userSpaceOnUse"
        gradientTransform="translate(301 301) rotate(90) scale(300)">
        <stop offset="0.333333" stop-color="#FBFBFB"></stop>
        <stop offset="1" stop-color="white" stop-opacity="0"></stop>
      </radialGradient>
      
      <!-- Colors for animated eclips-->
      <linearGradient id="paint3_linear" x1="295.043" y1="193.116" x2="269.975" y2="218.154"
        gradientUnits="userSpaceOnUse">
        <stop stop-color="#945DD6"></stop>
        <stop offset="1" stop-color="#945DD6" stop-opacity="0"></stop>
      </linearGradient>
      <linearGradient id="paint4_linear" x1="476.529" y1="363.31" x2="451.461" y2="338.272"
        gradientUnits="userSpaceOnUse">
        <stop stop-color="#945DD6"></stop>
        <stop offset="1" stop-color="#945DD6" stop-opacity="0"></stop>
      </linearGradient>
      <linearGradient id="paint5_linear" x1="382.168" y1="155.027" x2="357.1" y2="129.989"
        gradientUnits="userSpaceOnUse">
        <stop stop-color="#F46737"></stop>
        <stop offset="1" stop-color="#F46737" stop-opacity="0"></stop>
      </linearGradient>
      <linearGradient id="paint6_linear" x1="333.309" y1="382.693" x2="358.376" y2="357.655"
        gradientUnits="userSpaceOnUse">
        <stop stop-color="#FF0000"></stop>
        <stop offset="1" stop-color="#F46737" stop-opacity="0"></stop>
      </linearGradient>
      <linearGradient id="paint7_linear" x1="165.54" y1="93.9578" x2="140.472" y2="118.996"
        gradientUnits="userSpaceOnUse">
        <stop stop-color="#F46737"></stop>
        <stop offset="1" stop-color="#F46737" stop-opacity="0"></stop>
      </linearGradient>
      <linearGradient id="paint8_linear" x1="414.367" y1="301.156" x2="439.435" y2="276.118"
        gradientUnits="userSpaceOnUse">
        <stop stop-color="#13ADC7"></stop>
        <stop offset="1" stop-color="#13ADC7" stop-opacity="0"></stop>
      </linearGradient>
      <linearGradient id="paint9_linear" x1="515.943" y1="288.238" x2="541.339" y2="291.454"
        gradientUnits="userSpaceOnUse">
        <stop stop-color="#13ADC7"></stop>
        <stop offset="1" stop-color="#13ADC7" stop-opacity="0"></stop>
      </linearGradient>
      <linearGradient id="paint10_linear" x1="117.001" y1="230.619" x2="117.36" y2="258.193"
        gradientUnits="userSpaceOnUse">
        <stop stop-color="#945DD6"></stop>
        <stop offset="1" stop-color="#945DD6" stop-opacity="0"></stop>
      </linearGradient>
      <linearGradient id="paint11_linear" x1="476.529" y1="363.31" x2="451.461" y2="338.272"
        gradientUnits="userSpaceOnUse">
        <stop stop-color="#13ADC7"></stop>
        <stop offset="1" stop-color="#13ADC7" stop-opacity="0"></stop>

      </linearGradient>
    </defs>
  </svg>

